<svg width="512" height="512" viewBox="0 0 512 512" fill="none" xmlns="http://www.w3.org/2000/svg">
  <path
    d="M244.442 181.627C294.623 181.627 318.73 181.33 353.169 152.354C345.912 172.966 340.27 186.489 336.441 197.657C328.078 222.051 308.563 250.303 287.654 260.384C228.284 289.009 194.073 248.273 152.442 260.384C114.109 271.536 36.7451 297.323 28.3815 300.808C23.5476 302.822 65.1423 237.159 125.26 210.202C169.158 190.518 223.263 181.627 244.442 181.627Z"
    fill="#1F6FCE" />
  <path
    d="M353.169 152.354C359.155 124.179 361.246 88.233 369.199 65.2331C377.152 42.2331 391.502 38.0512 402.653 36.6573C413.805 35.2634 425.653 37.3543 431.926 42.2331C438.199 47.1119 438.896 52.6876 444.471 58.9603C450.047 65.233 487.219 77.0815 484.896 82.6573C482.572 88.233 452.138 85.7096 434.714 93.8087C417.29 101.908 443.774 185.808 434.714 235.99C430.532 251.323 417.987 284.072 390.108 304.99C362.229 325.908 339.229 340.535 291.835 340.535C244.442 340.535 213.078 324.505 194.957 308.475M353.169 152.354C318.73 181.33 294.623 181.627 244.442 181.627C223.263 181.627 169.158 190.518 125.26 210.202C65.1423 237.159 23.5476 302.822 28.3815 300.808C36.7451 297.323 114.109 271.536 152.442 260.384C194.073 248.273 228.284 289.009 287.654 260.384C308.563 250.303 328.078 222.051 336.441 197.657C340.27 186.489 345.912 172.966 353.169 152.354Z"
    stroke="#1F6FCE" stroke-width="20" stroke-linecap="round" stroke-linejoin="bevel" />
  <path d="M360.138 475.05H291.835V383.05" stroke="#1F6FCE" stroke-width="17" stroke-linecap="round"
    stroke-linejoin="round" />
  <line x1="328.214" y1="383.187" x2="328.214" y2="447.035" stroke="#1F6FCE" stroke-width="17" stroke-linecap="round" />
</svg>