<svg width="999" height="174" viewBox="0 0 999 174" fill="none" xmlns="http://www.w3.org/2000/svg">
  <style>
    :root {
      --logo-hue: 220;
      --logo-sat: 50%;
      --logo-primary: hsl(var(--logo-hue) var(--logo-sat) 40%);
      --logo-secondary: hsl(var(--logo-hue) var(--logo-sat) 40% / 0.6);
      --logo-text: var(--logo-primary);
    }
  </style>
  <path
    d="M51.75 173.25C35.4167 173.25 22.6667 168.667 13.5 159.5C4.5 150.167 3.7998e-07 137.917 3.7998e-07 122.75C3.7998e-07 109.25 2.66667 97.4167 8 87.25C13.3333 77.0833 20.25 69.25 28.75 63.75C37.25 58.25 46.1667 55.5 55.5 55.5C64.6667 55.5 71.75 58.25 76.75 63.75C81.9167 69.0833 84.5 76 84.5 84.5C84.5 91.5 82.9167 97.4167 79.75 102.25C76.75 107.083 72.75 109.5 67.75 109.5C64.5833 109.5 62 108.75 60 107.25C58.1667 105.75 57.25 103.667 57.25 101C57.25 99.8333 57.4167 98.5 57.75 97C58.0833 95.5 58.3333 94.4167 58.5 93.75C59.3333 91.25 59.75 88.9167 59.75 86.75C59.75 84.5833 59.1667 82.9167 58 81.75C57 80.5833 55.5 80 53.5 80C49.6667 80 46.0833 81.75 42.75 85.25C39.4167 88.5833 36.75 93.1667 34.75 99C32.75 104.833 31.75 111.25 31.75 118.25C31.75 137.583 40.1667 147.25 57 147.25C63.8333 147.25 71.1667 145 79 140.5C87 135.833 94.8333 128.917 102.5 119.75C104.5 117.417 106.75 116.25 109.25 116.25C111.417 116.25 113.083 117.25 114.25 119.25C115.583 121.25 116.25 124 116.25 127.5C116.25 133.833 114.667 139 111.5 143C103.667 152.667 94.25 160.167 83.25 165.5C72.4167 170.667 61.9167 173.25 51.75 173.25ZM119.35 173.25C109.016 173.25 100.766 169.5 94.5996 162C88.4329 154.5 85.3496 144.667 85.3496 132.5C85.3496 119.167 88.4329 106.583 94.5996 94.75C100.766 82.75 108.933 73.1667 119.1 66C129.433 58.6667 140.35 55 151.85 55C155.516 55 157.933 55.75 159.1 57.25C160.433 58.5833 161.516 61.0833 162.35 64.75C165.85 64.0833 169.516 63.75 173.35 63.75C181.516 63.75 185.6 66.6667 185.6 72.5C185.6 76 184.35 84.3333 181.85 97.5C178.016 116.667 176.1 130 176.1 137.5C176.1 140 176.683 142 177.85 143.5C179.183 145 180.85 145.75 182.85 145.75C186.016 145.75 189.85 143.75 194.35 139.75C198.85 135.583 204.933 128.917 212.6 119.75C214.6 117.417 216.85 116.25 219.35 116.25C221.516 116.25 223.183 117.25 224.35 119.25C225.683 121.25 226.35 124 226.35 127.5C226.35 134.167 224.766 139.333 221.6 143C214.766 151.5 207.516 158.667 199.85 164.5C192.183 170.333 184.766 173.25 177.6 173.25C172.1 173.25 167.016 171.417 162.35 167.75C157.85 163.917 154.433 158.75 152.1 152.25C143.433 166.25 132.516 173.25 119.35 173.25ZM128.35 148C132.016 148 135.516 145.833 138.85 141.5C142.183 137.167 144.6 131.417 146.1 124.25L155.35 78.25C148.35 78.4167 141.85 81.0833 135.85 86.25C130.016 91.25 125.35 97.9167 121.85 106.25C118.35 114.583 116.6 123.417 116.6 132.75C116.6 137.917 117.6 141.75 119.6 144.25C121.766 146.75 124.683 148 128.35 148ZM218.781 173.25C212.448 173.25 207.948 169.917 205.281 163.25C202.781 156.583 201.531 145.917 201.531 131.25C201.531 109.583 204.615 89 210.781 69.5C212.281 64.6667 214.698 61.1667 218.031 59C221.531 56.6667 226.365 55.5 232.531 55.5C235.865 55.5 238.198 55.9167 239.531 56.75C240.865 57.5833 241.531 59.1667 241.531 61.5C241.531 64.1667 240.281 70.1667 237.781 79.5C236.115 86.1667 234.781 92 233.781 97C232.781 101.833 231.948 107.917 231.281 115.25C235.781 102.25 241.115 91.25 247.281 82.25C253.615 73.25 260.031 66.5833 266.531 62.25C273.198 57.75 279.448 55.5 285.281 55.5C291.115 55.5 295.198 56.8333 297.531 59.5C300.031 62.1667 301.281 66.25 301.281 71.75C301.281 77.0833 299.698 86.75 296.531 100.75C295.198 106.75 294.281 111.25 293.781 114.25C302.115 93.75 311.365 78.8333 321.531 69.5C331.698 60.1667 341.198 55.5 350.031 55.5C360.865 55.5 366.281 60.9167 366.281 71.75C366.281 78.25 364.448 90 360.781 107C357.615 121.5 356.031 131.083 356.031 135.75C356.031 142.417 358.448 145.75 363.281 145.75C366.615 145.75 370.531 143.75 375.031 139.75C379.698 135.583 385.865 128.917 393.531 119.75C395.531 117.417 397.781 116.25 400.281 116.25C402.448 116.25 404.115 117.25 405.281 119.25C406.615 121.25 407.281 124 407.281 127.5C407.281 134.167 405.698 139.333 402.531 143C395.365 151.833 387.615 159.083 379.281 164.75C371.115 170.417 361.781 173.25 351.281 173.25C342.781 173.25 336.365 170.833 332.031 166C327.698 161 325.531 153.833 325.531 144.5C325.531 139.833 326.698 131.5 329.031 119.5C331.198 109 332.281 101.75 332.281 97.75C332.281 95.0833 331.365 93.75 329.531 93.75C327.365 93.75 324.281 96.5833 320.281 102.25C316.281 107.75 312.281 115.083 308.281 124.25C304.281 133.417 301.031 143.083 298.531 153.25C296.698 161.25 294.531 166.583 292.031 169.25C289.698 171.917 285.865 173.25 280.531 173.25C275.031 173.25 270.865 170.667 268.031 165.5C265.365 160.167 264.031 153.75 264.031 146.25C264.031 139.917 264.865 130.75 266.531 118.75C267.865 108.083 268.531 101.083 268.531 97.75C268.531 95.0833 267.615 93.75 265.781 93.75C263.281 93.75 260.115 96.75 256.281 102.75C252.448 108.75 248.698 116.417 245.031 125.75C241.531 135.083 238.698 144.25 236.531 153.25C234.698 161.083 232.531 166.417 230.031 169.25C227.698 171.917 223.948 173.25 218.781 173.25ZM509.566 95.25C511.733 95.25 513.4 96.3333 514.566 98.5C515.733 100.667 516.316 103.417 516.316 106.75C516.316 114.75 513.9 119.5 509.066 121C499.066 124.5 488.066 126.5 476.066 127C472.9 141 466.65 152.25 457.316 160.75C447.983 169.083 437.4 173.25 425.566 173.25C415.566 173.25 406.983 170.833 399.816 166C392.816 161.167 387.483 154.75 383.816 146.75C380.15 138.75 378.316 130.083 378.316 120.75C378.316 108.083 380.733 96.8333 385.566 87C390.4 77 397.066 69.25 405.566 63.75C414.066 58.0833 423.483 55.25 433.816 55.25C446.483 55.25 456.65 59.6667 464.316 68.5C472.15 77.1667 476.733 87.9167 478.066 100.75C485.9 100.25 495.233 98.5833 506.066 95.75C507.4 95.4167 508.566 95.25 509.566 95.25ZM427.566 146.75C432.9 146.75 437.483 144.583 441.316 140.25C445.316 135.917 447.983 129.667 449.316 121.5C444.15 118 440.15 113.417 437.316 107.75C434.65 102.083 433.316 96.0833 433.316 89.75C433.316 87.0833 433.566 84.4167 434.066 81.75H432.816C426.15 81.75 420.566 85 416.066 91.5C411.733 97.8333 409.566 106.833 409.566 118.5C409.566 127.667 411.316 134.667 414.816 139.5C418.483 144.333 422.733 146.75 427.566 146.75ZM507.609 173.25C501.276 173.25 496.776 169.917 494.109 163.25C491.609 156.583 490.359 145.917 490.359 131.25C490.359 109.583 493.443 89 499.609 69.5C501.109 64.6667 503.526 61.1667 506.859 59C510.359 56.6667 515.193 55.5 521.359 55.5C524.693 55.5 527.026 55.9167 528.359 56.75C529.693 57.5833 530.359 59.1667 530.359 61.5C530.359 64.1667 529.109 70.1667 526.609 79.5C524.943 86.1667 523.609 92 522.609 97C521.609 101.833 520.776 107.917 520.109 115.25C524.609 102.25 529.943 91.25 536.109 82.25C542.443 73.25 548.859 66.5833 555.359 62.25C562.026 57.75 568.276 55.5 574.109 55.5C579.943 55.5 584.026 56.8333 586.359 59.5C588.859 62.1667 590.109 66.25 590.109 71.75C590.109 77.0833 588.526 86.75 585.359 100.75C584.026 106.75 583.109 111.25 582.609 114.25C590.943 93.75 600.193 78.8333 610.359 69.5C620.526 60.1667 630.026 55.5 638.859 55.5C649.693 55.5 655.109 60.9167 655.109 71.75C655.109 78.25 653.276 90 649.609 107C646.443 121.5 644.859 131.083 644.859 135.75C644.859 142.417 647.276 145.75 652.109 145.75C655.443 145.75 659.359 143.75 663.859 139.75C668.526 135.583 674.693 128.917 682.359 119.75C684.359 117.417 686.609 116.25 689.109 116.25C691.276 116.25 692.943 117.25 694.109 119.25C695.443 121.25 696.109 124 696.109 127.5C696.109 134.167 694.526 139.333 691.359 143C684.193 151.833 676.443 159.083 668.109 164.75C659.943 170.417 650.609 173.25 640.109 173.25C631.609 173.25 625.193 170.833 620.859 166C616.526 161 614.359 153.833 614.359 144.5C614.359 139.833 615.526 131.5 617.859 119.5C620.026 109 621.109 101.75 621.109 97.75C621.109 95.0833 620.193 93.75 618.359 93.75C616.193 93.75 613.109 96.5833 609.109 102.25C605.109 107.75 601.109 115.083 597.109 124.25C593.109 133.417 589.859 143.083 587.359 153.25C585.526 161.25 583.359 166.583 580.859 169.25C578.526 171.917 574.693 173.25 569.359 173.25C563.859 173.25 559.693 170.667 556.859 165.5C554.193 160.167 552.859 153.75 552.859 146.25C552.859 139.917 553.693 130.75 555.359 118.75C556.693 108.083 557.359 101.083 557.359 97.75C557.359 95.0833 556.443 93.75 554.609 93.75C552.109 93.75 548.943 96.75 545.109 102.75C541.276 108.75 537.526 116.417 533.859 125.75C530.359 135.083 527.526 144.25 525.359 153.25C523.526 161.083 521.359 166.417 518.859 169.25C516.526 171.917 512.776 173.25 507.609 173.25ZM760.395 123.75C762.561 123.75 764.228 124.75 765.395 126.75C766.728 128.75 767.395 131.5 767.395 135C767.395 141 765.978 146.167 763.145 150.5C758.478 157.667 752.311 163.25 744.645 167.25C737.145 171.25 728.145 173.25 717.645 173.25C701.645 173.25 689.228 168.5 680.395 159C671.561 149.333 667.145 136.333 667.145 120C667.145 108.5 669.561 97.8333 674.395 88C679.228 78 685.895 70.0833 694.395 64.25C703.061 58.4167 712.811 55.5 723.645 55.5C733.311 55.5 741.061 58.4167 746.895 64.25C752.728 69.9167 755.645 77.6667 755.645 87.5C755.645 99 751.478 108.917 743.145 117.25C734.978 125.417 720.978 131.917 701.145 136.75C705.145 144.417 711.895 148.25 721.395 148.25C728.228 148.25 733.811 146.667 738.145 143.5C742.645 140.333 747.811 135 753.645 127.5C755.645 125 757.895 123.75 760.395 123.75ZM719.395 80C713.228 80 707.978 83.5833 703.645 90.75C699.478 97.9167 697.395 106.583 697.395 116.75V117.25C707.228 114.917 714.978 111.417 720.645 106.75C726.311 102.083 729.145 96.6667 729.145 90.5C729.145 87.3333 728.228 84.8333 726.395 83C724.728 81 722.395 80 719.395 80ZM855.34 173.25C847.84 173.25 841.673 169.833 836.84 163C832.173 156 829.84 147.333 829.84 137C829.84 124.5 830.673 113.083 832.34 102.75C834.007 92.25 836.757 81.1667 840.59 69.5C842.257 64.5 844.59 60.9167 847.59 58.75C850.59 56.5833 855.34 55.5 861.84 55.5C865.507 55.5 868.007 56.0833 869.34 57.25C870.84 58.4167 871.59 60.1667 871.59 62.5C871.59 63.8333 870.673 68.3333 868.84 76C867.173 82.1667 865.84 87.75 864.84 92.75C861.507 110.25 859.84 121.917 859.84 127.75C859.84 131.25 860.257 133.75 861.09 135.25C861.923 136.583 863.257 137.25 865.09 137.25C867.59 137.25 870.673 134.75 874.34 129.75C878.173 124.75 882.173 117.167 886.34 107C890.673 96.8333 894.84 84.3333 898.84 69.5C900.173 64.5 902.173 60.9167 904.84 58.75C907.673 56.5833 911.84 55.5 917.34 55.5C921.173 55.5 923.84 56 925.34 57C926.84 57.8333 927.59 59.5 927.59 62C927.59 66.1667 925.507 77.5833 921.34 96.25C916.673 117.583 914.34 130.75 914.34 135.75C914.34 138.917 915.007 141.417 916.34 143.25C917.673 144.917 919.423 145.75 921.59 145.75C924.923 145.75 928.84 143.75 933.34 139.75C938.007 135.583 944.173 128.917 951.84 119.75C953.84 117.417 956.09 116.25 958.59 116.25C960.757 116.25 962.423 117.25 963.59 119.25C964.923 121.25 965.59 124 965.59 127.5C965.59 134.167 964.007 139.333 960.84 143C953.673 151.833 945.923 159.083 937.59 164.75C929.423 170.417 920.09 173.25 909.59 173.25C901.59 173.25 895.673 170.167 891.84 164C888.173 157.833 886.34 149.167 886.34 138C883.507 149.333 879.257 158.083 873.59 164.25C867.923 170.25 861.84 173.25 855.34 173.25ZM974.818 39C967.818 39 962.568 37.4167 959.068 34.25C955.568 30.9167 953.818 26.3333 953.818 20.5C953.818 14.6667 956.068 9.83333 960.568 5.99999C965.235 1.99999 970.985 -5.84126e-06 977.818 -5.84126e-06C983.985 -5.84126e-06 988.985 1.49999 992.818 4.5C996.652 7.5 998.568 11.75 998.568 17.25C998.568 23.9167 996.402 29.25 992.068 33.25C987.735 37.0833 981.985 39 974.818 39ZM950.818 173.25C945.485 173.25 941.818 172.167 939.818 170C937.818 167.833 936.818 164.417 936.818 159.75C936.818 158.417 936.985 156.083 937.318 152.75C939.985 122.25 944.402 94.5 950.568 69.5C951.902 64.3333 954.068 60.75 957.068 58.75C960.235 56.5833 965.235 55.5 972.068 55.5C979.235 55.5 982.818 58.4167 982.818 64.25C982.818 65.0833 982.652 66.6667 982.318 69C974.818 104.667 970.318 134.583 968.818 158.75C968.485 164.083 966.902 167.833 964.068 170C961.235 172.167 956.818 173.25 950.818 173.25Z"
    fill="var(--logo-text)" />
</svg>