<svg width="1800" height="512" viewBox="0 0 1800 512" fill="none" xmlns="http://www.w3.org/2000/svg">
  <style>
    :root {
      --logo-hue: 220;
      --logo-sat: 50%;
      --logo-primary: hsl(var(--logo-hue) var(--logo-sat) 40%);
      --logo-secondary: hsl(var(--logo-hue) var(--logo-sat) 40% / 0.6);
      --logo-text: var(--logo-primary);
    }
  </style>
  <path
    d="M181.5 281C283.5 317.5 331.772 300.659 348.862 295.316C365.952 289.973 380.81 279.107 391.13 264.403C401.449 249.7 406.654 231.982 405.934 214"
    stroke="var(--logo-primary)" stroke-width="20" stroke-linecap="round" />
  <path d="M459 163C445.947 165.1 433.862 171.119 424.381 180.241C414.901 189.364 408.484 201.149 406 214"
    stroke="var(--logo-primary)" stroke-width="20" stroke-linecap="round" />
  <path
    d="M433 149.128C429.733 138.093 422.571 128.61 412.837 122.436C403.104 116.261 391.459 113.812 380.056 115.541C368.652 117.269 358.262 123.06 350.808 131.84C343.353 140.621 339.337 151.797 339.504 163.303M339.66 163.48C224.433 185.26 122.088 250.652 54 346"
    stroke="var(--logo-primary)" stroke-width="20" stroke-miterlimit="16" stroke-linecap="round"
    stroke-linejoin="bevel" />
  <path d="M294 333.115L301.227 394.542L328.021 394.09" stroke="var(--logo-primary)" stroke-width="20"
    stroke-linecap="round" />
  <path
    d="M315.306 188.706C322.249 196.496 314.218 209.771 291.212 228.53C268.205 247.29 242.287 264.244 213.457 279.394C184.627 294.544 158.032 304.502 133.672 309.269C109.312 314.036 99.8375 309.132 105.247 294.556C110.657 279.98 114.448 265.73 116.618 251.804C118.789 237.879 135.224 223.956 165.925 210.036C196.626 196.116 222.035 186.003 242.15 179.695C262.266 173.388 277.751 171.365 288.607 173.627C299.463 175.889 308.363 180.915 315.306 188.706Z"
    fill="var(--logo-secondary)" />
  <circle cx="402" cy="150" r="7" fill="var(--logo-primary)" />
  <path
    d="M602.7 352.5C583.1 352.5 567.8 347 556.8 336C546 324.8 540.6 310.1 540.6 291.9C540.6 275.7 543.8 261.5 550.2 249.3C556.6 237.1 564.9 227.7 575.1 221.1C585.3 214.5 596 211.2 607.2 211.2C618.2 211.2 626.7 214.5 632.7 221.1C638.9 227.5 642 235.8 642 246C642 254.4 640.1 261.5 636.3 267.3C632.7 273.1 627.9 276 621.9 276C618.1 276 615 275.1 612.6 273.3C610.4 271.5 609.3 269 609.3 265.8C609.3 264.4 609.5 262.8 609.9 261C610.3 259.2 610.6 257.9 610.8 257.1C611.8 254.1 612.3 251.3 612.3 248.7C612.3 246.1 611.6 244.1 610.2 242.7C609 241.3 607.2 240.6 604.8 240.6C600.2 240.6 595.9 242.7 591.9 246.9C587.9 250.9 584.7 256.4 582.3 263.4C579.9 270.4 578.7 278.1 578.7 286.5C578.7 309.7 588.8 321.3 609 321.3C617.2 321.3 626 318.6 635.4 313.2C645 307.6 654.4 299.3 663.6 288.3C666 285.5 668.7 284.1 671.7 284.1C674.3 284.1 676.3 285.3 677.7 287.7C679.3 290.1 680.1 293.4 680.1 297.6C680.1 305.2 678.2 311.4 674.4 316.2C665 327.8 653.7 336.8 640.5 343.2C627.5 349.4 614.9 352.5 602.7 352.5ZM683.82 352.5C671.42 352.5 661.52 348 654.12 339C646.72 330 643.02 318.2 643.02 303.6C643.02 287.6 646.72 272.5 654.12 258.3C661.52 243.9 671.32 232.4 683.52 223.8C695.92 215 709.02 210.6 722.82 210.6C727.22 210.6 730.12 211.5 731.52 213.3C733.12 214.9 734.42 217.9 735.42 222.3C739.62 221.5 744.02 221.1 748.62 221.1C758.42 221.1 763.32 224.6 763.32 231.6C763.32 235.8 761.82 245.8 758.82 261.6C754.22 284.6 751.92 300.6 751.92 309.6C751.92 312.6 752.62 315 754.02 316.8C755.62 318.6 757.62 319.5 760.02 319.5C763.82 319.5 768.42 317.1 773.82 312.3C779.22 307.3 786.52 299.3 795.72 288.3C798.12 285.5 800.82 284.1 803.82 284.1C806.42 284.1 808.42 285.3 809.82 287.7C811.42 290.1 812.22 293.4 812.22 297.6C812.22 305.6 810.32 311.8 806.52 316.2C798.32 326.4 789.62 335 780.42 342C771.22 349 762.32 352.5 753.72 352.5C747.12 352.5 741.02 350.3 735.42 345.9C730.02 341.3 725.92 335.1 723.12 327.3C712.72 344.1 699.62 352.5 683.82 352.5ZM694.62 322.2C699.02 322.2 703.22 319.6 707.22 314.4C711.22 309.2 714.12 302.3 715.92 293.7L727.02 238.5C718.62 238.7 710.82 241.9 703.62 248.1C696.62 254.1 691.02 262.1 686.82 272.1C682.62 282.1 680.52 292.7 680.52 303.9C680.52 310.1 681.72 314.7 684.12 317.7C686.72 320.7 690.22 322.2 694.62 322.2ZM803.138 352.5C795.538 352.5 790.138 348.5 786.938 340.5C783.938 332.5 782.438 319.7 782.438 302.1C782.438 276.1 786.138 251.4 793.538 228C795.338 222.2 798.238 218 802.238 215.4C806.438 212.6 812.238 211.2 819.638 211.2C823.638 211.2 826.438 211.7 828.038 212.7C829.638 213.7 830.438 215.6 830.438 218.4C830.438 221.6 828.938 228.8 825.938 240C823.938 248 822.338 255 821.138 261C819.938 266.8 818.938 274.1 818.138 282.9C823.538 267.3 829.938 254.1 837.338 243.3C844.938 232.5 852.638 224.5 860.438 219.3C868.438 213.9 875.938 211.2 882.938 211.2C889.938 211.2 894.838 212.8 897.638 216C900.638 219.2 902.138 224.1 902.138 230.7C902.138 237.1 900.238 248.7 896.438 265.5C894.838 272.7 893.738 278.1 893.138 281.7C903.138 257.1 914.238 239.2 926.438 228C938.638 216.8 950.038 211.2 960.638 211.2C973.638 211.2 980.138 217.7 980.138 230.7C980.138 238.5 977.938 252.6 973.538 273C969.738 290.4 967.838 301.9 967.838 307.5C967.838 315.5 970.738 319.5 976.538 319.5C980.538 319.5 985.238 317.1 990.638 312.3C996.238 307.3 1003.64 299.3 1012.84 288.3C1015.24 285.5 1017.94 284.1 1020.94 284.1C1023.54 284.1 1025.54 285.3 1026.94 287.7C1028.54 290.1 1029.34 293.4 1029.34 297.6C1029.34 305.6 1027.44 311.8 1023.64 316.2C1015.04 326.8 1005.74 335.5 995.738 342.3C985.938 349.1 974.738 352.5 962.138 352.5C951.938 352.5 944.238 349.6 939.038 343.8C933.838 337.8 931.238 329.2 931.238 318C931.238 312.4 932.638 302.4 935.438 288C938.038 275.4 939.338 266.7 939.338 261.9C939.338 258.7 938.238 257.1 936.038 257.1C933.438 257.1 929.738 260.5 924.938 267.3C920.138 273.9 915.338 282.7 910.538 293.7C905.738 304.7 901.838 316.3 898.838 328.5C896.638 338.1 894.038 344.5 891.038 347.7C888.238 350.9 883.638 352.5 877.238 352.5C870.638 352.5 865.638 349.4 862.238 343.2C859.038 336.8 857.438 329.1 857.438 320.1C857.438 312.5 858.438 301.5 860.438 287.1C862.038 274.3 862.838 265.9 862.838 261.9C862.838 258.7 861.738 257.1 859.538 257.1C856.538 257.1 852.738 260.7 848.138 267.9C843.538 275.1 839.038 284.3 834.638 295.5C830.438 306.7 827.038 317.7 824.438 328.5C822.238 337.9 819.638 344.3 816.638 347.7C813.838 350.9 809.338 352.5 803.138 352.5ZM1152.08 258.9C1154.68 258.9 1156.68 260.2 1158.08 262.8C1159.48 265.4 1160.18 268.7 1160.18 272.7C1160.18 282.3 1157.28 288 1151.48 289.8C1139.48 294 1126.28 296.4 1111.88 297C1108.08 313.8 1100.58 327.3 1089.38 337.5C1078.18 347.5 1065.48 352.5 1051.28 352.5C1039.28 352.5 1028.98 349.6 1020.38 343.8C1011.98 338 1005.58 330.3 1001.18 320.7C996.78 311.1 994.58 300.7 994.58 289.5C994.58 274.3 997.48 260.8 1003.28 249C1009.08 237 1017.08 227.7 1027.28 221.1C1037.48 214.3 1048.78 210.9 1061.18 210.9C1076.38 210.9 1088.58 216.2 1097.78 226.8C1107.18 237.2 1112.68 250.1 1114.28 265.5C1123.68 264.9 1134.88 262.9 1147.88 259.5C1149.48 259.1 1150.88 258.9 1152.08 258.9ZM1053.68 320.7C1060.08 320.7 1065.58 318.1 1070.18 312.9C1074.98 307.7 1078.18 300.2 1079.78 290.4C1073.58 286.2 1068.78 280.7 1065.38 273.9C1062.18 267.1 1060.58 259.9 1060.58 252.3C1060.58 249.1 1060.88 245.9 1061.48 242.7H1059.98C1051.98 242.7 1045.28 246.6 1039.88 254.4C1034.68 262 1032.08 272.8 1032.08 286.8C1032.08 297.8 1034.18 306.2 1038.38 312C1042.78 317.8 1047.88 320.7 1053.68 320.7ZM1149.73 352.5C1142.13 352.5 1136.73 348.5 1133.53 340.5C1130.53 332.5 1129.03 319.7 1129.03 302.1C1129.03 276.1 1132.73 251.4 1140.13 228C1141.93 222.2 1144.83 218 1148.83 215.4C1153.03 212.6 1158.83 211.2 1166.23 211.2C1170.23 211.2 1173.03 211.7 1174.63 212.7C1176.23 213.7 1177.03 215.6 1177.03 218.4C1177.03 221.6 1175.53 228.8 1172.53 240C1170.53 248 1168.93 255 1167.73 261C1166.53 266.8 1165.53 274.1 1164.73 282.9C1170.13 267.3 1176.53 254.1 1183.93 243.3C1191.53 232.5 1199.23 224.5 1207.03 219.3C1215.03 213.9 1222.53 211.2 1229.53 211.2C1236.53 211.2 1241.43 212.8 1244.23 216C1247.23 219.2 1248.73 224.1 1248.73 230.7C1248.73 237.1 1246.83 248.7 1243.03 265.5C1241.43 272.7 1240.33 278.1 1239.73 281.7C1249.73 257.1 1260.83 239.2 1273.03 228C1285.23 216.8 1296.63 211.2 1307.23 211.2C1320.23 211.2 1326.73 217.7 1326.73 230.7C1326.73 238.5 1324.53 252.6 1320.13 273C1316.33 290.4 1314.43 301.9 1314.43 307.5C1314.43 315.5 1317.33 319.5 1323.13 319.5C1327.13 319.5 1331.83 317.1 1337.23 312.3C1342.83 307.3 1350.23 299.3 1359.43 288.3C1361.83 285.5 1364.53 284.1 1367.53 284.1C1370.13 284.1 1372.13 285.3 1373.53 287.7C1375.13 290.1 1375.93 293.4 1375.93 297.6C1375.93 305.6 1374.03 311.8 1370.23 316.2C1361.63 326.8 1352.33 335.5 1342.33 342.3C1332.53 349.1 1321.33 352.5 1308.73 352.5C1298.53 352.5 1290.83 349.6 1285.63 343.8C1280.43 337.8 1277.83 329.2 1277.83 318C1277.83 312.4 1279.23 302.4 1282.03 288C1284.63 275.4 1285.93 266.7 1285.93 261.9C1285.93 258.7 1284.83 257.1 1282.63 257.1C1280.03 257.1 1276.33 260.5 1271.53 267.3C1266.73 273.9 1261.93 282.7 1257.13 293.7C1252.33 304.7 1248.43 316.3 1245.43 328.5C1243.23 338.1 1240.63 344.5 1237.63 347.7C1234.83 350.9 1230.23 352.5 1223.83 352.5C1217.23 352.5 1212.23 349.4 1208.83 343.2C1205.63 336.8 1204.03 329.1 1204.03 320.1C1204.03 312.5 1205.03 301.5 1207.03 287.1C1208.63 274.3 1209.43 265.9 1209.43 261.9C1209.43 258.7 1208.33 257.1 1206.13 257.1C1203.13 257.1 1199.33 260.7 1194.73 267.9C1190.13 275.1 1185.63 284.3 1181.23 295.5C1177.03 306.7 1173.63 317.7 1171.03 328.5C1168.83 337.9 1166.23 344.3 1163.23 347.7C1160.43 350.9 1155.93 352.5 1149.73 352.5ZM1453.07 293.1C1455.67 293.1 1457.67 294.3 1459.07 296.7C1460.67 299.1 1461.47 302.4 1461.47 306.6C1461.47 313.8 1459.77 320 1456.37 325.2C1450.77 333.8 1443.37 340.5 1434.17 345.3C1425.17 350.1 1414.37 352.5 1401.77 352.5C1382.57 352.5 1367.67 346.8 1357.07 335.4C1346.47 323.8 1341.17 308.2 1341.17 288.6C1341.17 274.8 1344.07 262 1349.87 250.2C1355.67 238.2 1363.67 228.7 1373.87 221.7C1384.27 214.7 1395.97 211.2 1408.97 211.2C1420.57 211.2 1429.87 214.7 1436.87 221.7C1443.87 228.5 1447.37 237.8 1447.37 249.6C1447.37 263.4 1442.37 275.3 1432.37 285.3C1422.57 295.1 1405.77 302.9 1381.97 308.7C1386.77 317.9 1394.87 322.5 1406.27 322.5C1414.47 322.5 1421.17 320.6 1426.37 316.8C1431.77 313 1437.97 306.6 1444.97 297.6C1447.37 294.6 1450.07 293.1 1453.07 293.1ZM1403.87 240.6C1396.47 240.6 1390.17 244.9 1384.97 253.5C1379.97 262.1 1377.47 272.5 1377.47 284.7V285.3C1389.27 282.5 1398.57 278.3 1405.37 272.7C1412.17 267.1 1415.57 260.6 1415.57 253.2C1415.57 249.4 1414.47 246.4 1412.27 244.2C1410.27 241.8 1407.47 240.6 1403.87 240.6ZM1567.01 352.5C1558.01 352.5 1550.61 348.4 1544.81 340.2C1539.21 331.8 1536.41 321.4 1536.41 309C1536.41 294 1537.41 280.3 1539.41 267.9C1541.41 255.3 1544.71 242 1549.31 228C1551.31 222 1554.11 217.7 1557.71 215.1C1561.31 212.5 1567.01 211.2 1574.81 211.2C1579.21 211.2 1582.21 211.9 1583.81 213.3C1585.61 214.7 1586.51 216.8 1586.51 219.6C1586.51 221.2 1585.41 226.6 1583.21 235.8C1581.21 243.2 1579.61 249.9 1578.41 255.9C1574.41 276.9 1572.41 290.9 1572.41 297.9C1572.41 302.1 1572.91 305.1 1573.91 306.9C1574.91 308.5 1576.51 309.3 1578.71 309.3C1581.71 309.3 1585.41 306.3 1589.81 300.3C1594.41 294.3 1599.21 285.2 1604.21 273C1609.41 260.8 1614.41 245.8 1619.21 228C1620.81 222 1623.21 217.7 1626.41 215.1C1629.81 212.5 1634.81 211.2 1641.41 211.2C1646.01 211.2 1649.21 211.8 1651.01 213C1652.81 214 1653.71 216 1653.71 219C1653.71 224 1651.21 237.7 1646.21 260.1C1640.61 285.7 1637.81 301.5 1637.81 307.5C1637.81 311.3 1638.61 314.3 1640.21 316.5C1641.81 318.5 1643.91 319.5 1646.51 319.5C1650.51 319.5 1655.21 317.1 1660.61 312.3C1666.21 307.3 1673.61 299.3 1682.81 288.3C1685.21 285.5 1687.91 284.1 1690.91 284.1C1693.51 284.1 1695.51 285.3 1696.91 287.7C1698.51 290.1 1699.31 293.4 1699.31 297.6C1699.31 305.6 1697.41 311.8 1693.61 316.2C1685.01 326.8 1675.71 335.5 1665.71 342.3C1655.91 349.1 1644.71 352.5 1632.11 352.5C1622.51 352.5 1615.41 348.8 1610.81 341.4C1606.41 334 1604.21 323.6 1604.21 310.2C1600.81 323.8 1595.71 334.3 1588.91 341.7C1582.11 348.9 1574.81 352.5 1567.01 352.5ZM1710.38 191.4C1701.98 191.4 1695.68 189.5 1691.48 185.7C1687.28 181.7 1685.18 176.2 1685.18 169.2C1685.18 162.2 1687.88 156.4 1693.28 151.8C1698.88 147 1705.78 144.6 1713.98 144.6C1721.38 144.6 1727.38 146.4 1731.98 150C1736.58 153.6 1738.88 158.7 1738.88 165.3C1738.88 173.3 1736.28 179.7 1731.08 184.5C1725.88 189.1 1718.98 191.4 1710.38 191.4ZM1681.58 352.5C1675.18 352.5 1670.78 351.2 1668.38 348.6C1665.98 346 1664.78 341.9 1664.78 336.3C1664.78 334.7 1664.98 331.9 1665.38 327.9C1668.58 291.3 1673.88 258 1681.28 228C1682.88 221.8 1685.48 217.5 1689.08 215.1C1692.88 212.5 1698.88 211.2 1707.08 211.2C1715.68 211.2 1719.98 214.7 1719.98 221.7C1719.98 222.7 1719.78 224.6 1719.38 227.4C1710.38 270.2 1704.98 306.1 1703.18 335.1C1702.78 341.5 1700.88 346 1697.48 348.6C1694.08 351.2 1688.78 352.5 1681.58 352.5Z"
    fill="var(--logo-text)" />
</svg>