<svg width="20" height="20" viewBox="0 0 20 20" fill="none" xmlns="http://www.w3.org/2000/svg">
  <path fill-rule="evenodd" clip-rule="evenodd"
    d="M5 11.5C5 11.2771 5.08692 11.0633 5.24165 10.9057C5.39637 10.7481 5.60623 10.6595 5.82504 10.6595H13.1272L10.7533 8.46303C10.6715 8.38745 10.6054 8.29592 10.559 8.19387C10.5126 8.09181 10.4867 7.98129 10.483 7.86887C10.4793 7.75645 10.4977 7.64441 10.5373 7.5394C10.5769 7.43438 10.6367 7.33852 10.7133 7.25749C10.7899 7.17647 10.8817 7.11193 10.9832 7.0677C11.0847 7.02347 11.1939 7.00045 11.3043 7.00001C11.4147 6.99956 11.5241 7.0217 11.626 7.06511C11.7278 7.10852 11.8201 7.17231 11.8973 7.25272L15.7475 10.8948C15.8274 10.9733 15.8909 11.0672 15.9343 11.1712C15.9776 11.2752 16 11.387 16 11.5C16 11.613 15.9776 11.7248 15.9343 11.8288C15.8909 11.9327 15.8274 12.0267 15.7475 12.1052L11.8973 15.7473C11.8201 15.8277 11.7278 15.8915 11.626 15.9349C11.5241 15.9783 11.4147 16.0004 11.3043 16C11.1939 15.9995 11.0847 15.9765 10.9832 15.9323C10.8817 15.8881 10.7899 15.8235 10.7133 15.7425C10.6367 15.6615 10.5769 15.5656 10.5373 15.4606C10.4977 15.3556 10.4793 15.2435 10.483 15.1311C10.4867 15.0187 10.5126 14.9082 10.559 14.8061C10.6054 14.7041 10.6715 14.6125 10.7533 14.537L13.1272 12.3405H5.82504C5.60623 12.3405 5.39637 12.2519 5.24165 12.0943C5.08692 11.9367 5 11.7229 5 11.5Z"
    fill="currentColor" />
</svg>