<svg width="54" height="54" viewBox="0 0 54 54" fill="none" xmlns="http://www.w3.org/2000/svg">
  <path
    d="M26.2022 19.5336C31.6034 19.5336 34.1981 19.5016 37.9047 16.3829C37.1237 18.6014 36.5164 20.057 36.1043 21.2589C35.2041 23.8845 33.1037 26.9253 30.8532 28.0104C24.4631 31.0913 20.7809 26.7069 16.3001 28.0104C12.1742 29.2106 3.84739 31.9862 2.94719 32.3613C2.42691 32.5781 6.90384 25.5106 13.3744 22.6092C18.0993 20.4906 23.9227 19.5336 26.2022 19.5336Z"
    fill="currentColor" />
  <path
    d="M37.9047 16.3829C38.549 13.3503 38.7741 9.48141 39.6301 7.00587C40.4861 4.53034 42.0306 4.08024 43.2309 3.93021C44.4311 3.78018 45.7064 4.00523 46.3815 4.53034C47.0567 5.05545 47.1317 5.65558 47.7318 6.33072C48.332 7.00587 52.3328 8.28115 52.0828 8.88128C51.8327 9.48141 48.557 9.20981 46.6816 10.0815C44.8062 10.9533 47.6568 19.9837 46.6816 25.3848C46.2315 27.0352 44.8812 30.56 41.8806 32.8114C38.8799 35.0628 36.4044 36.6372 31.3033 36.6372C26.2022 36.6372 22.8265 34.9119 20.876 33.1865M37.9047 16.3829C34.1981 19.5016 31.6034 19.5336 26.2022 19.5336C23.9227 19.5336 18.0993 20.4906 13.3744 22.6092C6.90383 25.5106 2.42691 32.5781 2.94719 32.3613C3.84739 31.9862 12.1742 29.2106 16.3001 28.0104C20.7809 26.7069 24.4631 31.0913 30.8532 28.0104C33.1037 26.9253 35.2041 23.8845 36.1043 21.2589C36.5164 20.057 37.1237 18.6014 37.9047 16.3829Z"
    stroke="currentColor" stroke-width="2.15264" stroke-linecap="round" stroke-linejoin="bevel" />
  <path d="M38.6548 51.1154H31.3032V41.2132" stroke="currentColor" stroke-width="1.82975" stroke-linecap="round"
    stroke-linejoin="round" />
  <line x1="35.2187" y1="41.2279" x2="35.2187" y2="48.1" stroke="currentColor" stroke-width="1.82975"
    stroke-linecap="round" />
</svg>