<svg width="295" height="55" viewBox="0 0 295 55" fill="none" xmlns="http://www.w3.org/2000/svg">
  <path
    d="M26.2022 19.5336C31.6034 19.5336 34.1981 19.5016 37.9047 16.3829C37.1237 18.6014 36.5164 20.057 36.1043 21.2589C35.2041 23.8845 33.1037 26.9253 30.8532 28.0104C24.4631 31.0913 20.7809 26.7069 16.3001 28.0104C12.1742 29.2106 3.84739 31.9862 2.94719 32.3613C2.42691 32.5781 6.90384 25.5106 13.3744 22.6092C18.0993 20.4906 23.9227 19.5336 26.2022 19.5336Z"
    fill="currentColor" />
  <path
    d="M37.9047 16.3829C38.549 13.3503 38.7741 9.48141 39.6301 7.00587C40.4861 4.53034 42.0306 4.08024 43.2309 3.93021C44.4311 3.78018 45.7064 4.00523 46.3815 4.53034C47.0567 5.05545 47.1317 5.65558 47.7318 6.33072C48.332 7.00587 52.3328 8.28115 52.0828 8.88128C51.8327 9.48141 48.557 9.20981 46.6816 10.0815C44.8062 10.9533 47.6568 19.9837 46.6816 25.3848C46.2315 27.0352 44.8812 30.56 41.8806 32.8114C38.8799 35.0628 36.4044 36.6372 31.3033 36.6372C26.2022 36.6372 22.8265 34.9119 20.876 33.1865M37.9047 16.3829C34.1981 19.5016 31.6034 19.5336 26.2022 19.5336C23.9227 19.5336 18.0993 20.4906 13.3744 22.6092C6.90383 25.5106 2.42691 32.5781 2.94719 32.3613C3.84739 31.9862 12.1742 29.2106 16.3001 28.0104C20.7809 26.7069 24.4631 31.0913 30.8532 28.0104C33.1037 26.9253 35.2041 23.8845 36.1043 21.2589C36.5164 20.057 37.1237 18.6014 37.9047 16.3829Z"
    stroke="currentColor" stroke-width="2.15264" stroke-linecap="round" stroke-linejoin="bevel" />
  <path d="M38.6548 51.1154H31.3032V41.2132" stroke="currentColor" stroke-width="1.82975" stroke-linecap="round"
    stroke-linejoin="round" />
  <line x1="35.2187" y1="41.2279" x2="35.2187" y2="48.1" stroke="currentColor" stroke-width="1.82975"
    stroke-linecap="round" />
  <path
    d="M77.428 42.26C74.0307 42.26 71.3787 41.3067 69.472 39.4C67.6 37.4587 66.664 34.9107 66.664 31.756C66.664 28.948 67.2187 26.4867 68.328 24.372C69.4373 22.2573 70.876 20.628 72.644 19.484C74.412 18.34 76.2667 17.768 78.208 17.768C80.1147 17.768 81.588 18.34 82.628 19.484C83.7027 20.5933 84.24 22.032 84.24 23.8C84.24 25.256 83.9107 26.4867 83.252 27.492C82.628 28.4973 81.796 29 80.756 29C80.0973 29 79.56 28.844 79.144 28.532C78.7627 28.22 78.572 27.7867 78.572 27.232C78.572 26.9893 78.6067 26.712 78.676 26.4C78.7453 26.088 78.7973 25.8627 78.832 25.724C79.0053 25.204 79.092 24.7187 79.092 24.268C79.092 23.8173 78.9707 23.4707 78.728 23.228C78.52 22.9853 78.208 22.864 77.792 22.864C76.9947 22.864 76.2493 23.228 75.556 23.956C74.8627 24.6493 74.308 25.6027 73.892 26.816C73.476 28.0293 73.268 29.364 73.268 30.82C73.268 34.8413 75.0187 36.852 78.52 36.852C79.9413 36.852 81.4667 36.384 83.096 35.448C84.76 34.4773 86.3893 33.0387 87.984 31.132C88.4 30.6467 88.868 30.404 89.388 30.404C89.8387 30.404 90.1853 30.612 90.428 31.028C90.7053 31.444 90.844 32.016 90.844 32.744C90.844 34.0613 90.5147 35.136 89.856 35.968C88.2267 37.9787 86.268 39.5387 83.98 40.648C81.7267 41.7227 79.5427 42.26 77.428 42.26ZM92.5287 42.26C90.3794 42.26 88.6634 41.48 87.3807 39.92C86.0981 38.36 85.4567 36.3147 85.4567 33.784C85.4567 31.0107 86.0981 28.3933 87.3807 25.932C88.6634 23.436 90.3621 21.4427 92.4767 19.952C94.6261 18.4267 96.8967 17.664 99.2887 17.664C100.051 17.664 100.554 17.82 100.797 18.132C101.074 18.4093 101.299 18.9293 101.473 19.692C102.201 19.5533 102.963 19.484 103.761 19.484C105.459 19.484 106.309 20.0907 106.309 21.304C106.309 22.032 106.049 23.7653 105.529 26.504C104.731 30.4907 104.333 33.264 104.333 34.824C104.333 35.344 104.454 35.76 104.697 36.072C104.974 36.384 105.321 36.54 105.737 36.54C106.395 36.54 107.193 36.124 108.129 35.292C109.065 34.4253 110.33 33.0387 111.925 31.132C112.341 30.6467 112.809 30.404 113.329 30.404C113.779 30.404 114.126 30.612 114.369 31.028C114.646 31.444 114.785 32.016 114.785 32.744C114.785 34.1307 114.455 35.2053 113.797 35.968C112.375 37.736 110.867 39.2267 109.273 40.44C107.678 41.6533 106.135 42.26 104.645 42.26C103.501 42.26 102.443 41.8787 101.473 41.116C100.537 40.3187 99.8261 39.244 99.3407 37.892C97.5381 40.804 95.2674 42.26 92.5287 42.26ZM94.4007 37.008C95.1634 37.008 95.8914 36.5573 96.5847 35.656C97.2781 34.7547 97.7807 33.5587 98.0927 32.068L100.017 22.5C98.5607 22.5347 97.2087 23.0893 95.9607 24.164C94.7474 25.204 93.7767 26.5907 93.0487 28.324C92.3207 30.0573 91.9567 31.8947 91.9567 33.836C91.9567 34.9107 92.1647 35.708 92.5807 36.228C93.0314 36.748 93.6381 37.008 94.4007 37.008ZM114.251 42.26C112.933 42.26 111.997 41.5667 111.443 40.18C110.923 38.7933 110.663 36.5747 110.663 33.524C110.663 29.0173 111.304 24.736 112.587 20.68C112.899 19.6747 113.401 18.9467 114.095 18.496C114.823 18.0107 115.828 17.768 117.111 17.768C117.804 17.768 118.289 17.8547 118.567 18.028C118.844 18.2013 118.983 18.5307 118.983 19.016C118.983 19.5707 118.723 20.8187 118.203 22.76C117.856 24.1467 117.579 25.36 117.371 26.4C117.163 27.4053 116.989 28.6707 116.851 30.196C117.787 27.492 118.896 25.204 120.179 23.332C121.496 21.46 122.831 20.0733 124.183 19.172C125.569 18.236 126.869 17.768 128.083 17.768C129.296 17.768 130.145 18.0453 130.631 18.6C131.151 19.1547 131.411 20.004 131.411 21.148C131.411 22.2573 131.081 24.268 130.423 27.18C130.145 28.428 129.955 29.364 129.851 29.988C131.584 25.724 133.508 22.6213 135.623 20.68C137.737 18.7387 139.713 17.768 141.551 17.768C143.804 17.768 144.931 18.8947 144.931 21.148C144.931 22.5 144.549 24.944 143.787 28.48C143.128 31.496 142.799 33.4893 142.799 34.46C142.799 35.8467 143.301 36.54 144.307 36.54C145 36.54 145.815 36.124 146.751 35.292C147.721 34.4253 149.004 33.0387 150.599 31.132C151.015 30.6467 151.483 30.404 152.003 30.404C152.453 30.404 152.8 30.612 153.043 31.028C153.32 31.444 153.459 32.016 153.459 32.744C153.459 34.1307 153.129 35.2053 152.471 35.968C150.98 37.8053 149.368 39.3133 147.635 40.492C145.936 41.6707 143.995 42.26 141.811 42.26C140.043 42.26 138.708 41.7573 137.807 40.752C136.905 39.712 136.455 38.2213 136.455 36.28C136.455 35.3093 136.697 33.576 137.183 31.08C137.633 28.896 137.859 27.388 137.859 26.556C137.859 26.0013 137.668 25.724 137.287 25.724C136.836 25.724 136.195 26.3133 135.363 27.492C134.531 28.636 133.699 30.1613 132.867 32.068C132.035 33.9747 131.359 35.9853 130.839 38.1C130.457 39.764 130.007 40.8733 129.487 41.428C129.001 41.9827 128.204 42.26 127.095 42.26C125.951 42.26 125.084 41.7227 124.495 40.648C123.94 39.5387 123.663 38.204 123.663 36.644C123.663 35.3267 123.836 33.42 124.183 30.924C124.46 28.7053 124.599 27.2493 124.599 26.556C124.599 26.0013 124.408 25.724 124.027 25.724C123.507 25.724 122.848 26.348 122.051 27.596C121.253 28.844 120.473 30.4387 119.711 32.38C118.983 34.3213 118.393 36.228 117.943 38.1C117.561 39.7293 117.111 40.8387 116.591 41.428C116.105 41.9827 115.325 42.26 114.251 42.26ZM175.774 26.036C176.224 26.036 176.571 26.2613 176.814 26.712C177.056 27.1627 177.178 27.7347 177.178 28.428C177.178 30.092 176.675 31.08 175.67 31.392C173.59 32.12 171.302 32.536 168.806 32.64C168.147 35.552 166.847 37.892 164.906 39.66C162.964 41.3933 160.763 42.26 158.302 42.26C156.222 42.26 154.436 41.7573 152.946 40.752C151.49 39.7467 150.38 38.412 149.618 36.748C148.855 35.084 148.474 33.2813 148.474 31.34C148.474 28.7053 148.976 26.3653 149.982 24.32C150.987 22.24 152.374 20.628 154.142 19.484C155.91 18.3053 157.868 17.716 160.018 17.716C162.652 17.716 164.767 18.6347 166.362 20.472C167.991 22.2747 168.944 24.5107 169.222 27.18C170.851 27.076 172.792 26.7293 175.046 26.14C175.323 26.0707 175.566 26.036 175.774 26.036ZM158.718 36.748C159.827 36.748 160.78 36.2973 161.578 35.396C162.41 34.4947 162.964 33.1947 163.242 31.496C162.167 30.768 161.335 29.8147 160.746 28.636C160.191 27.4573 159.914 26.2093 159.914 24.892C159.914 24.3373 159.966 23.7827 160.07 23.228H159.81C158.423 23.228 157.262 23.904 156.326 25.256C155.424 26.5733 154.974 28.4453 154.974 30.872C154.974 32.7787 155.338 34.2347 156.066 35.24C156.828 36.2453 157.712 36.748 158.718 36.748ZM176.407 42.26C175.089 42.26 174.153 41.5667 173.599 40.18C173.079 38.7933 172.819 36.5747 172.819 33.524C172.819 29.0173 173.46 24.736 174.743 20.68C175.055 19.6747 175.557 18.9467 176.251 18.496C176.979 18.0107 177.984 17.768 179.267 17.768C179.96 17.768 180.445 17.8547 180.723 18.028C181 18.2013 181.139 18.5307 181.139 19.016C181.139 19.5707 180.879 20.8187 180.359 22.76C180.012 24.1467 179.735 25.36 179.527 26.4C179.319 27.4053 179.145 28.6707 179.007 30.196C179.943 27.492 181.052 25.204 182.335 23.332C183.652 21.46 184.987 20.0733 186.339 19.172C187.725 18.236 189.025 17.768 190.239 17.768C191.452 17.768 192.301 18.0453 192.787 18.6C193.307 19.1547 193.567 20.004 193.567 21.148C193.567 22.2573 193.237 24.268 192.579 27.18C192.301 28.428 192.111 29.364 192.007 29.988C193.74 25.724 195.664 22.6213 197.779 20.68C199.893 18.7387 201.869 17.768 203.707 17.768C205.96 17.768 207.087 18.8947 207.087 21.148C207.087 22.5 206.705 24.944 205.943 28.48C205.284 31.496 204.955 33.4893 204.955 34.46C204.955 35.8467 205.457 36.54 206.463 36.54C207.156 36.54 207.971 36.124 208.907 35.292C209.877 34.4253 211.16 33.0387 212.755 31.132C213.171 30.6467 213.639 30.404 214.159 30.404C214.609 30.404 214.956 30.612 215.199 31.028C215.476 31.444 215.615 32.016 215.615 32.744C215.615 34.1307 215.285 35.2053 214.627 35.968C213.136 37.8053 211.524 39.3133 209.791 40.492C208.092 41.6707 206.151 42.26 203.967 42.26C202.199 42.26 200.864 41.7573 199.963 40.752C199.061 39.712 198.611 38.2213 198.611 36.28C198.611 35.3093 198.853 33.576 199.339 31.08C199.789 28.896 200.015 27.388 200.015 26.556C200.015 26.0013 199.824 25.724 199.443 25.724C198.992 25.724 198.351 26.3133 197.519 27.492C196.687 28.636 195.855 30.1613 195.023 32.068C194.191 33.9747 193.515 35.9853 192.995 38.1C192.613 39.764 192.163 40.8733 191.643 41.428C191.157 41.9827 190.36 42.26 189.251 42.26C188.107 42.26 187.24 41.7227 186.651 40.648C186.096 39.5387 185.819 38.204 185.819 36.644C185.819 35.3267 185.992 33.42 186.339 30.924C186.616 28.7053 186.755 27.2493 186.755 26.556C186.755 26.0013 186.564 25.724 186.183 25.724C185.663 25.724 185.004 26.348 184.207 27.596C183.409 28.844 182.629 30.4387 181.867 32.38C181.139 34.3213 180.549 36.228 180.099 38.1C179.717 39.7293 179.267 40.8387 178.747 41.428C178.261 41.9827 177.481 42.26 176.407 42.26ZM230.026 31.964C230.477 31.964 230.823 32.172 231.066 32.588C231.343 33.004 231.482 33.576 231.482 34.304C231.482 35.552 231.187 36.6267 230.598 37.528C229.627 39.0187 228.345 40.18 226.75 41.012C225.19 41.844 223.318 42.26 221.134 42.26C217.806 42.26 215.223 41.272 213.386 39.296C211.549 37.2853 210.63 34.5813 210.63 31.184C210.63 28.792 211.133 26.5733 212.138 24.528C213.143 22.448 214.53 20.8013 216.298 19.588C218.101 18.3747 220.129 17.768 222.382 17.768C224.393 17.768 226.005 18.3747 227.218 19.588C228.431 20.7667 229.038 22.3787 229.038 24.424C229.038 26.816 228.171 28.8787 226.438 30.612C224.739 32.3107 221.827 33.6627 217.702 34.668C218.534 36.2627 219.938 37.06 221.914 37.06C223.335 37.06 224.497 36.7307 225.398 36.072C226.334 35.4133 227.409 34.304 228.622 32.744C229.038 32.224 229.506 31.964 230.026 31.964ZM221.498 22.864C220.215 22.864 219.123 23.6093 218.222 25.1C217.355 26.5907 216.922 28.3933 216.922 30.508V30.612C218.967 30.1267 220.579 29.3987 221.758 28.428C222.937 27.4573 223.526 26.3307 223.526 25.048C223.526 24.3893 223.335 23.8693 222.954 23.488C222.607 23.072 222.122 22.864 221.498 22.864ZM251.855 42.26C250.295 42.26 249.012 41.5493 248.007 40.128C247.036 38.672 246.551 36.8693 246.551 34.72C246.551 32.12 246.724 29.7453 247.071 27.596C247.417 25.412 247.989 23.1067 248.787 20.68C249.133 19.64 249.619 18.8947 250.243 18.444C250.867 17.9933 251.855 17.768 253.207 17.768C253.969 17.768 254.489 17.8893 254.767 18.132C255.079 18.3747 255.235 18.7387 255.235 19.224C255.235 19.5013 255.044 20.4373 254.663 22.032C254.316 23.3147 254.039 24.476 253.831 25.516C253.137 29.156 252.791 31.5827 252.791 32.796C252.791 33.524 252.877 34.044 253.051 34.356C253.224 34.6333 253.501 34.772 253.883 34.772C254.403 34.772 255.044 34.252 255.807 33.212C256.604 32.172 257.436 30.5947 258.303 28.48C259.204 26.3653 260.071 23.7653 260.903 20.68C261.18 19.64 261.596 18.8947 262.151 18.444C262.74 17.9933 263.607 17.768 264.751 17.768C265.548 17.768 266.103 17.872 266.415 18.08C266.727 18.2533 266.883 18.6 266.883 19.12C266.883 19.9867 266.449 22.3613 265.583 26.244C264.612 30.6813 264.127 33.42 264.127 34.46C264.127 35.1187 264.265 35.6387 264.543 36.02C264.82 36.3667 265.184 36.54 265.635 36.54C266.328 36.54 267.143 36.124 268.079 35.292C269.049 34.4253 270.332 33.0387 271.927 31.132C272.343 30.6467 272.811 30.404 273.331 30.404C273.781 30.404 274.128 30.612 274.371 31.028C274.648 31.444 274.787 32.016 274.787 32.744C274.787 34.1307 274.457 35.2053 273.799 35.968C272.308 37.8053 270.696 39.3133 268.963 40.492C267.264 41.6707 265.323 42.26 263.139 42.26C261.475 42.26 260.244 41.6187 259.447 40.336C258.684 39.0533 258.303 37.2507 258.303 34.928C257.713 37.2853 256.829 39.1053 255.651 40.388C254.472 41.636 253.207 42.26 251.855 42.26ZM277.746 14.336C276.29 14.336 275.198 14.0067 274.47 13.348C273.742 12.6547 273.378 11.7013 273.378 10.488C273.378 9.27467 273.846 8.26933 274.782 7.472C275.753 6.64 276.949 6.224 278.37 6.224C279.653 6.224 280.693 6.536 281.49 7.16C282.288 7.784 282.686 8.668 282.686 9.812C282.686 11.1987 282.236 12.308 281.334 13.14C280.433 13.9373 279.237 14.336 277.746 14.336ZM272.754 42.26C271.645 42.26 270.882 42.0347 270.466 41.584C270.05 41.1333 269.842 40.4227 269.842 39.452C269.842 39.1747 269.877 38.6893 269.946 37.996C270.501 31.652 271.42 25.88 272.702 20.68C272.98 19.6053 273.43 18.86 274.054 18.444C274.713 17.9933 275.753 17.768 277.174 17.768C278.665 17.768 279.41 18.3747 279.41 19.588C279.41 19.7613 279.376 20.0907 279.306 20.576C277.746 27.9947 276.81 34.2173 276.498 39.244C276.429 40.3533 276.1 41.1333 275.51 41.584C274.921 42.0347 274.002 42.26 272.754 42.26Z"
    fill="currentColor" />
</svg>